<svg width="192" height="192" viewBox="0 0 192 192" fill="none" xmlns="http://www.w3.org/2000/svg">
<path d="M112 38C71.2001 38 38.0001 71.2 38.0001 112C38.0001 125.2 41.6001 137.2 47.2001 148L38.0001 180.8C37.2001 184 40.0001 186.4 42.8001 185.6L75.6001 176.4C86.4001 182.4 98.4001 185.6 111.6 185.6C152.4 185.6 185.6 152.4 185.6 111.6C186 71.2 152.8 38 112 38Z" fill="#9A00C5"/>
<path d="M168.8 82C162 48 132 22 96 22C55.2 22 22 55.2 22 96C22 100 22.4 103.6 22.8 107.6" stroke="#18193F" stroke-width="10" stroke-miterlimit="10" stroke-linecap="round" stroke-linejoin="round"/>
<path d="M31.1999 132L21.9999 164.8C21.1999 168 23.9999 170.8 27.1999 170L59.9999 160.8C70.7999 166.8 82.7999 170 95.9999 170C130.8 170 160 146 168 113.6" stroke="#18193F" stroke-width="10" stroke-miterlimit="10" stroke-linecap="round" stroke-linejoin="round"/>
</svg>
