<svg width="47" height="47" viewBox="0 0 47 47" fill="none" xmlns="http://www.w3.org/2000/svg">
<path d="M3.49458 31.5C2.99111 30.2218 2.60608 28.8839 2.35298 27.5C2.12113 26.2322 2 24.9257 2 23.5909C2 11.6666 11.6666 2 23.5909 2C35.5151 2 45.1818 11.6666 45.1818 23.5909C45.1818 26.3827 44.6519 29.0508 43.6872 31.5M7 37.4087C10.9605 42.1589 16.9227 45.1818 23.5909 45.1818C30.2811 45.1818 35.9663 42.5024 39.8974 37.7612" stroke="black" stroke-width="3.23864" stroke-linecap="round" stroke-linejoin="round"/>
<path d="M6.90332 37.2921C6.90332 37.2921 11.716 31.1479 23.5909 31.1479C35.4659 31.1479 40.2788 37.2921 40.2788 37.2921" stroke="#9A00C5" stroke-width="3.23864" stroke-linecap="round" stroke-linejoin="round"/>
<path d="M23.5908 23.5908C27.1682 23.5908 30.0681 20.6909 30.0681 17.1135C30.0681 13.5362 27.1682 10.6362 23.5908 10.6362C20.0134 10.6362 17.1135 13.5362 17.1135 17.1135C17.1135 20.6909 20.0134 23.5908 23.5908 23.5908Z" stroke="#9A00C5" stroke-width="3.23864" stroke-linecap="round" stroke-linejoin="round"/>
</svg>
